<?xml version="1.0" encoding="utf-8"?>
<!-- Generator: Adobe Illustrator 26.3.1, SVG Export Plug-In . SVG Version: 6.00 Build 0)  -->
<svg version="1.1" id="Layer_1" xmlns="http://www.w3.org/2000/svg" xmlns:xlink="http://www.w3.org/1999/xlink" x="0px" y="0px"
	 viewBox="0 0 200 200" style="enable-background:new 0 0 200 200;" xml:space="preserve">
<style type="text/css">
	.st0{fill:#2AACE2;}
	.st1{fill:#2BACE2;}
	.st2{fill:#2CACE2;}
	.st3{fill:#FFFFFF;}
	.st4{fill:#FEFEFF;}
	.st5{fill:#FDFEFF;}
	.st6{fill:#F3F8FD;}
	.st7{fill:#F6FAFD;}
	.st8{fill:#F1F7FC;}
	.st9{fill:#86C4EB;}
	.st10{fill:#89C4EB;}
</style>
<g>
	<path class="st0" d="M45.5,86.6c0-31.3,25.3-56.4,56.8-56.3c31.1,0,56.3,25.5,56,57.1c-0.3,31-25.7,55.8-57,55.7
		C70.7,142.9,45.5,117.5,45.5,86.6z"/>
	<path class="st1" d="M105.6,156.1c4.3,2.8,8.5,5.3,11.9,8.8c1.5,1.5,3,3,4.4,4.5c0.9,1,1.7,2,0,3.1c-1.3,0.9-2.1,1.2-3.4-0.3
		c-4.3-5.1-9.1-9.6-14.8-13.3c-1.3-0.9-2.3-0.9-3.7,0c-5.6,3.7-10.5,8.1-14.8,13.3c-1.2,1.4-2,1.3-3.4,0.4c-1.6-1.1-0.9-2,0-3.1
		c4-4.7,8.7-8.6,13.9-11.8c0.7-0.4,1.4-0.9,2.3-1.5c-2.7-1.6-5.5-2.1-8.3-2.6c-0.6-0.1-1.2,0.1-1.6,0.6c-4.6,4.8-10.5,4.9-16.4,4.7
		c-6.1-0.2-12.1-1.6-17.8-4c-0.3-0.1-0.7-0.3-1-0.5c-0.1-0.1-0.1-0.2-0.3-0.5c4.5-1.4,9-2.3,13.6-3c11.8-1.7,23.3-0.9,34.5,3.3
		c1.2,0.4,2.1-0.1,3-0.4c15.5-5.4,31-4.4,46.5-0.2c0.2,0.1,0.3,0.2,0.8,0.5c-3,1.5-6,2.5-9,3.2c-6.4,1.5-12.9,2.3-19.5,0.9
		c-2.6-0.6-4.9-1.6-6.7-3.5c-0.8-0.8-1.7-1.2-2.8-1C110.8,154.1,108.3,154.8,105.6,156.1z"/>
	<path class="st1" d="M171.9,132.5c-5.6,11.4-14.6,18.3-25.9,17.3c-1.2-0.1-2.9,0.1-3.2-0.9c-0.4-1.1,1.1-2,2-2.7
		c7.4-5.7,15.4-10.3,24.3-13.2C169.9,132.6,170.9,132.4,171.9,132.5z"/>
	<path class="st1" d="M61.6,149.1c-13.1,3.4-23.8-4.7-29.5-16.6C39.1,132.9,58.5,143.7,61.6,149.1z"/>
	<path class="st1" d="M55.2,127.2c3.1,1.5,5.4,3.8,7.9,5.9c4.1,3.4,8.1,7,11.5,11.2c0.8,1,2.2,2.4,1.5,3.5c-0.6,0.9-2.5,0.6-3.8,0.6
		c-10.2-0.4-14.7-7.5-16.6-16.8C55.3,130.2,54.8,128.9,55.2,127.2z"/>
	<path class="st1" d="M149.1,127.3c-1.4,8-2.8,15.6-11,19.5c-2.8,1.3-5.8,1.5-8.8,1.4c-2-0.1-1.9-0.9-1.1-2.2
		c1.3-2.2,3.1-4.1,4.9-5.9c4.1-4.1,8.5-7.9,13.2-11.4C147,128.2,147.7,127.6,149.1,127.3z"/>
	<path class="st1" d="M21.7,107c9.8,7.3,17.4,16.1,22.8,27.1C34.5,132.9,20.6,116.5,21.7,107z"/>
	<path class="st1" d="M159.8,134.1c2.1-7.6,15.6-23.5,22.6-26.7C182.6,114.6,172.5,131.7,159.8,134.1z"/>
	<path class="st1" d="M159,108.9c3.9,9.5,3.2,21.6-6.8,28.4c-0.5,0.4-1.1,1.1-1.7,0.8c-0.7-0.4-0.6-1.3-0.6-2.1
		c0.2-4.6,1.4-8.9,2.7-13.2c1.4-4.5,2.7-9,5.5-12.8C158.3,109.7,158.6,109.4,159,108.9z"/>
	<path class="st1" d="M42.8,119.6c0-3.2,0.7-6.3,1.5-9.3c0.1-0.4,0.1-1,0.7-1.1c0.5-0.1,0.7,0.4,1,0.8c1.3,1.9,2.2,3.9,3.1,6
		c2.3,5.8,4.1,11.8,5,18c0.2,1.4,0.8,3.3-0.4,4c-1,0.5-2.3-1.1-3.3-1.9C45.1,131.9,42.8,126.3,42.8,119.6z"/>
	<path class="st1" d="M184.2,82.2c2.1,12.4-3.4,25.6-12.5,29.5C173.6,100.6,177.7,90.9,184.2,82.2z"/>
	<path class="st2" d="M32.3,111.7c-10.5-4.8-14.6-19.5-12.4-30C26.2,90.9,30.4,100.6,32.3,111.7z"/>
	<path class="st1" d="M163.1,91.2c6.8,8.4,8.9,19.2,3.3,27.7c-0.3,0.5-0.5,1.3-1.2,1.3c-0.8-0.1-0.9-0.9-1.1-1.5
		c-1.2-3.1-1.6-6.4-1.9-9.7c-0.5-5.2-1-10.4,0.2-15.5C162.6,92.7,162.8,92,163.1,91.2z"/>
	<path class="st2" d="M40.9,90.9c1.3,3.8,1.5,7.4,1.3,11c-0.2,4.8-0.5,9.6-1.7,14.3c-0.2,0.7-0.3,1.5-0.6,2.2
		c-0.3,0.6-0.3,1.7-1.1,1.8c-0.7,0-1-0.9-1.3-1.4c-2.9-4.8-3.9-10-2.5-15.6C36,98.8,37.9,94.9,40.9,90.9z"/>
	<path class="st2" d="M25.7,58.9c3.2,10.4,4.3,20.4,2.6,31C20.7,83.5,21.1,67.6,25.7,58.9z"/>
	<path class="st2" d="M175.7,90c-1.7-10.6-0.7-20.7,2.6-30.9C182.3,65.7,183.9,82.7,175.7,90z"/>
	<path class="st2" d="M40.4,74.8c1.3,5.3-3.5,20.5-8.3,26.2C27.7,94,31.6,81.9,40.4,74.8z"/>
	<path class="st1" d="M163.3,74.6c7.9,5.9,12,16.6,9.6,24.4c-0.2,0.7-0.1,1.7-1,1.8c-0.6,0-1-0.9-1.3-1.4
		c-3.8-6.8-6.6-14.1-7.3-21.9C163.2,76.6,163.3,75.8,163.3,74.6z"/>
	<path class="st2" d="M172.1,79.9c-6.9-6.6-11.1-14.2-13.8-23C167.7,61.4,173.8,70,172.1,79.9z"/>
	<path class="st2" d="M31.9,79.7C30,71.3,36.3,61.3,46.2,57C43.1,65.8,38.9,73.5,31.9,79.7z"/>
	<path class="st2" d="M162.7,44.7c8.5,5.8,13.1,15.5,10.9,22.6C166.8,61.4,164.1,53.6,162.7,44.7z"/>
	<path class="st2" d="M30.4,67c-2.8-6.1,2.3-15.9,10.5-22.1C41.2,51,36,63.9,30.4,67z"/>
	<path class="st3" d="M77.7,45.3c1.4,1,2.5,0.9,3.6-0.2c0.4-0.4,0.8-0.7,1.2-1c3.6-3.1,3.6-3.1,7.7-0.6c0.9,0.5,1,0.9,0.5,1.7
		c-0.8,1.3-1.4,2.7-2.2,4c-0.6,1-0.2,1.5,0.6,2c1,0.6,1.2-0.2,1.5-0.7c0-0.1,0.1-0.1,0.1-0.2c0.9-1.6,1.5-3.8,2.9-4.7
		c1.5-0.9,3.5,0.7,5.4,0.6c1.2-0.1,1.6,0.6,1.5,1.7c0,2,0,3.9,0,5.9c0,1.3-0.3,1.9-1.9,1.7c-1.5-0.2-3.1-0.2-4.7-0.3
		c0.3,2.5,1.9,2.8,3.6,2.6c2.4-0.3,3.1,0.7,3,3c-0.2,4-0.1,8,0,12c0,0.9-0.2,1.9,1.3,1.8c1.3,0,1.2-1,1.1-1.8
		c-0.2-1.7,0.7-2.1,2-2.2c1.9-0.1,3.8-0.3,5.6-0.4c2.1,0,3.6-0.9,5-2.9c-2.2,0.2-4.1,0.3-6.1,0.6c-6.6,0.9-6.6,0.9-6.6-5.5
		c0-4.5,0-4.5,4.3-5c2.3-0.2,4.5-0.5,6.7-1.1c1.2-0.3,1.8-0.1,2.1,1.1c0.7,2.2,1.5,4.4,2.2,6.7c0.2,0.7,0.4,1.5,1.5,1.1
		s1.1-1,0.8-1.9c-0.7-2.1-1.4-4.3-2.2-6.4c-0.4-1.1-0.4-1.7,0.9-2.1c2.4-0.8,4.8-1.8,7.1-3c1.2-0.6,1.9-0.3,2.6,0.7
		c1.5,2.3,2.9,4.6,4.4,6.8c1.1,1.6,0.6,2.4-1.1,2.9c-0.6,0.2-1.2,0.5-2.3,0.9c3.2,0.8,6.2,1,8.9,3.4c-0.9-4.2-0.9-4.1,2.4-6
		c1.4-0.8,2.8-1.5,4.1-2.5s1.9-0.5,2.6,0.7c4.7,8.1,7.4,16.8,7.6,26.2c0.3,17.4-6.3,31.7-19.3,43.1c-1.5,1.3-2.6,1.3-4.1,0.1
		c-2.7-2.2-4.6-4.7-5.1-8.2c-0.4-2.8,0.3-3.4,3-3.4c4.9,0,9.1-1.8,12.9-4.8c8.7-6.8,11.3-15.8,8.6-26.1
		c-2.7-10.5-10.1-16.8-20.6-19.1c-6-1.3-11.3,1-15.8,5c-0.8,0.8-1.7,1.5-2.4,2.4c-2.5,3.3-6,4.4-10,4.5c-3.1,0.1-3.6,0.8-2.5,3.5
		c0.5,1.2,0.7,2.2-1,2.5c-0.1,0-0.4,0.1-0.4,0.2c0.6,3-3.2,3.8-3.1,6.6c0,1-0.6,1.5-1.1,2.1c-1.7,2.1-1.7,4.3,0.2,6.3
		c1.3,1.4,2.8,2.5,4.4,3.6c2.7,2,4.4,4.5,4.3,8c0,2.2,0.5,4.3,1.1,6.4c1.2,3.9-0.5,6.3-4.6,6.6c-5.6,0.5-10.8,2.7-16,4.8
		c-2.3,0.9-4.6,1.5-7,1.9c-4.9,0.9-8.5-1.3-11.6-4.6c-1.1-1.1-0.1-6.1,1.2-6.7c0.2-0.1,0.5-0.1,0.6,0c4,2.5,8.4,1.3,12.6,0.8
		c3.4-0.4,6.6-1.3,10.2-0.5c4.2,1,8.4-4.1,7.4-8.3c-0.4-1.6-1.5-1.7-2.8-1.4c-0.7,0.2-1.5,0.8-1.4-0.7c0.1-0.7-0.6-0.8-1.1-0.8
		c-0.9-0.1-1.9,0-2.6,0.6c-3.9,3.5-8.2,1.4-12.4,0.9c-1.8-0.2-2.7-1.4-2.9-3.4c-0.6-5.9-1.3-11.8-2.7-17.6c-0.4-1.8,1.2-3.3,3.2-3
		c1.5,0.2,2.9,0.7,4.4,1c2.4,0.5,4.1-0.4,6.2-1.7c2.7-1.7,2.5-5,5.1-6.5c0.7-0.4,0.2-1.2,0-1.9c-0.4-1.6-0.1-3.1,0.9-4.5
		c5-7.1,4-13.5-2.8-19c-3.7-3-7.7-5.2-12.6-5.8c-8.5-1.1-16.9,5.7-17.4,14.3c-0.2,3.5,0.3,6.9,1.2,10.3c0.6,2.2,0,4.2-1.8,5.4
		c-3.3,2.2-6.7,4.2-10.2,7c0.3-4.8,0.8-9.1,2.1-13.3c4.8-16,14.8-27.4,29.9-34.5c1.6-0.7,3.8,0.2,4.2,1.8c0.2,0.7-0.4,0.9-0.7,1.2
		C81.4,42,79.4,43.4,77.7,45.3z"/>
	<path class="st4" d="M145.5,54.8c0,0.6-0.4,0.8-0.8,1c-2.2,1.3-4.4,2.5-6.6,3.9c-0.9,0.6-1.4,0.3-1.9-0.6c-1.4-2.8-3.1-5.5-5.1-8
		c-0.6-0.8-0.8-1.3,0.2-1.9c1.5-0.9,2.9-2,4.2-3c0.8-0.6,1.4-0.6,2.2,0c2.8,2.4,5.2,5.2,7.5,8.1C145.2,54.5,145.4,54.7,145.5,54.8z"
		/>
	<path class="st5" d="M109.1,45.3c1.1-0.2,1.4,0.3,1.7,1c1.1,2.1,2.1,4.2,3.2,6.2c0.6,1.2,0.1,1.5-1,1.8c-2.8,0.6-5.6,0.8-8.5,1.2
		c-1.1,0.1-1.5-0.3-1.5-1.3c0-2.2,0-4.4,0-6.5c0-0.7,0.1-1.3,0.9-1.4C105.8,46,107.5,45.7,109.1,45.3z"/>
	<path class="st5" d="M126.1,49.1c-0.2,0.2-0.3,0.4-0.5,0.5c-0.2,0.2-0.5,0.3-0.8,0.4c-2.6,1-5.6,3.6-7.6,2.4c-2.2-1.4-3-5-4.4-7.7
		c-0.1-0.2-0.2-0.4-0.1-0.6c0.3-1.1,5.2-2.8,6.1-2.1c2.2,1.8,4.4,3.7,6.3,5.8C125.5,48.3,125.8,48.7,126.1,49.1z"/>
	<path class="st5" d="M134.4,43.8c-0.3,0.3-0.5,0.6-0.7,0.8c-3.8,3.6-4.6,3.6-8.3,0c-1.4-1.3-2.9-2.6-4.4-3.9
		c-0.5-0.4-1.8-0.7-1-1.6c0.8-0.9,1.4-2.7,3-2.2c4,1.4,7.5,3.7,10.9,6.2C134,43.3,134.2,43.5,134.4,43.8z"/>
	<path class="st6" d="M100.7,35.5c0,2.7,0,4.8,0,7c0,1.2-0.6,1.5-1.5,1.2c-1.2-0.3-3,0-3.6-1.1s0.9-2,1.6-3
		C98.1,38.3,99,36.9,100.7,35.5z"/>
	<path class="st7" d="M103.1,35.4c2.3,2.1,3.6,4.4,5.1,6.5c0.1,0.1,0.2,0.3,0.2,0.4c-0.8,1.6-2.5,0.9-3.7,1.4
		c-0.7,0.3-1.6,0.2-1.6-0.9C103.1,40.5,103.1,38.2,103.1,35.4z"/>
	<path class="st7" d="M106,34.8c3.2,1.3,5.7,2.6,8.1,4.1c0.8,0.5,0.8,0.9,0,1.5c-2.3,1.8-2.9,1.7-4.5-0.5
		C108.6,38.3,107.5,36.8,106,34.8z"/>
	<path class="st7" d="M97.4,35.1c-1.6,2.3-3,4.3-4.4,6.2c-0.4,0.6-0.9,0.5-1.4,0.2c-0.9-0.5-2.1-0.7-2.6-1.7
		c-0.3-0.7,0.7-1.1,1.2-1.4C92.5,37.3,94.6,35.9,97.4,35.1z"/>
	<path class="st8" d="M94,33.8c-2.1,1.1-4.3,2.1-6.3,3.5c-1.7,1.2-2.4,0-3-1c-0.7-1,0.4-1,1-1.2c2.6-0.8,5.2-1.4,7.9-1.8
		C94,33.2,94.1,33.4,94,33.8z"/>
	<path class="st6" d="M110.4,33.3c2.5,0.3,4.9,0.8,7.2,1.6c0.6,0.2,1.6,0.1,1.6,0.9c0,0.5-0.8,1-1.2,1.5c-0.6,0.7-1.2,0.2-1.8-0.1
		c-2.1-1.2-4.2-2.3-6.3-3.5C109.8,33.4,109.9,33.2,110.4,33.3z"/>
	<path class="st9" d="M110.4,33.3c-0.2,0.2-0.3,0.3-0.5,0.5c-0.4,0-1.2-0.2-1-0.6C109.2,32.6,109.9,32.9,110.4,33.3z"/>
	<path class="st10" d="M94,33.8c-0.1-0.2-0.3-0.3-0.4-0.5c0.5-0.4,1.1-0.7,1.4-0.1C95.2,33.6,94.5,33.8,94,33.8z"/>
</g>
</svg>
